<svg id="Branch--Streamline-Carbon" xmlns="http://www.w3.org/2000/svg" viewBox="0 0 32 32">
  <desc>
    Branch Streamline Icon: https://streamlinehq.com
  </desc>
  <defs></defs>
  <path d="M20 6c0 1.8587 1.2795 3.4109 3 3.858V14c0 1.6543 -1.3457 3 -3 3h-8c-1.1299 0 -2.1617 0.391 -3 1.0256V9.858c1.7203 -0.4471 3 -1.9993 3 -3.858 0 -2.2061 -1.7944 -4 -4 -4S4 3.7939 4 6c0 1.8587 1.2797 3.4108 3 3.858V22l0 0.142c-1.7203 0.4473 -3 1.9997 -3 3.858 0 2.2056 1.7944 4 4 4s4 -1.7944 4 -4c0 -1.8583 -1.2797 -3.4107 -3 -3.858V22c0 -1.6543 1.3457 -3 3 -3h8c2.7568 0 5 -2.2432 5 -5V9.858c1.7205 -0.4471 3 -1.9993 3 -3.858 0 -2.2061 -1.7939 -4 -4 -4s-4 1.7939 -4 4ZM6 6c0 -1.1025 0.897 -2 2 -2s2 0.8975 2 2 -0.897 2 -2 2 -2 -0.8975 -2 -2Zm4 20c0 1.103 -0.897 2 -2 2s-2 -0.897 -2 -2 0.897 -2 2 -2 2 0.897 2 2ZM26 6c0 1.1025 -0.8975 2 -2 2s-2 -0.8975 -2 -2 0.8975 -2 2 -2 2 0.8975 2 2Z" stroke-width="1" fill="#000000"></path>
  <path id="_Transparent_Rectangle_" d="M0 0h32v32H0Z" stroke-width="1" fill="none"></path>
</svg>